<svg xmlns="http://www.w3.org/2000/svg" width="24" height="24"  viewBox="0 0 24 24"><g transform="matrix(1 0 0 1 0 0)"  ><g style=""   ><g transform="matrix(1 0 0 1 6.5 12)"  ><path style="stroke: none; stroke-width: 1; stroke-dasharray: none; stroke-linecap: butt; stroke-dashoffset: 0; stroke-linejoin: miter; stroke-miterlimit: 4; fill: rgb(255,255,255); fill-rule: nonzero; opacity: 1;"  transform=" translate(-6.5, -12)" d="M 1 17 L 1 7 C 1 6.20435 1.3163 5.44152 1.87891 4.87891 C 2.44152 4.3163 3.20435 4 4 4 L 9 4 C 9.55228 4 10 4.44772 10 5 C 10 5.55228 9.55228 6 9 6 L 4 6 C 3.73478 6 3.48051 6.10543 3.29297 6.29297 C 3.10543 6.48051 3 6.73478 3 7 L 3 17 C 3 17.2652 3.10543 17.5195 3.29297 17.707 C 3.48051 17.8946 3.73478 18 4 18 L 11 18 C 11.5523 18 12 18.4477 12 19 C 12 19.5523 11.5523 20 11 20 L 4 20 C 3.20435 20 2.44152 19.6837 1.87891 19.1211 C 1.3163 18.5585 1 17.7956 1 17 Z" stroke-linecap="round" /></g><g transform="matrix(1 0 0 1 17.5 12)"  ><path style="stroke: none; stroke-width: 1; stroke-dasharray: none; stroke-linecap: butt; stroke-dashoffset: 0; stroke-linejoin: miter; stroke-miterlimit: 4; fill: rgb(255,255,255); fill-rule: nonzero; opacity: 1;"  transform=" translate(-17.5, -12)" d="M 21 17 L 21 7 C 21 6.73478 20.8946 6.48051 20.707 6.29297 C 20.5429 6.12883 20.3276 6.02757 20.0986 6.00488 L 20 6 L 13 6 C 12.4477 6 12 5.55228 12 5 C 12 4.44772 12.4477 4 13 4 L 20 4 L 20.2969 4.01465 C 20.9835 4.08291 21.6289 4.38671 22.1211 4.87891 C 22.6837 5.44152 23 6.20435 23 7 L 23 17 C 23 17.7957 22.6837 18.5585 22.1211 19.1211 C 21.5585 19.6837 20.7957 20 20 20 L 15 20 C 14.4477 20 14 19.5523 14 19 C 14 18.4477 14.4477 18 15 18 L 20 18 C 20.2652 18 20.5195 17.8946 20.707 17.707 C 20.8946 17.5195 21 17.2652 21 17 Z" stroke-linecap="round" /></g><g transform="matrix(1 0 0 1 12 12)"  ><path style="stroke: none; stroke-width: 1; stroke-dasharray: none; stroke-linecap: butt; stroke-dashoffset: 0; stroke-linejoin: miter; stroke-miterlimit: 4; fill: rgb(255,255,255); fill-rule: nonzero; opacity: 1;"  transform=" translate(-12, -12)" d="M 14 12 C 14 10.8954 13.1046 10 12 10 C 10.8954 10 10 10.8954 10 12 C 10 13.1046 10.8954 14 12 14 C 13.1046 14 14 13.1046 14 12 Z M 16 12 C 16 14.2091 14.2091 16 12 16 C 9.79086 16 8 14.2091 8 12 C 8 9.79086 9.79086 8 12 8 C 14.2091 8 16 9.79086 16 12 Z" stroke-linecap="round" /></g><g transform="matrix(1 0 0 1 16.5 19)"  ><path style="stroke: none; stroke-width: 1; stroke-dasharray: none; stroke-linecap: butt; stroke-dashoffset: 0; stroke-linejoin: miter; stroke-miterlimit: 4; fill: rgb(255,255,255); fill-rule: nonzero; opacity: 1;"  transform=" translate(-16.5, -19)" d="M 17.293 15.293 C 17.6835 14.9025 18.3165 14.9025 18.707 15.293 C 19.0975 15.6835 19.0975 16.3166 18.707 16.7071 L 16.414 19 L 18.707 21.293 L 18.7754 21.3692 C 19.0957 21.762 19.0731 22.341 18.707 22.7071 C 18.3409 23.0732 17.7619 23.0958 17.3691 22.7754 L 17.293 22.7071 L 14.293 19.7071 C 13.9024 19.3166 13.9024 18.6835 14.293 18.293 L 17.293 15.293 Z" stroke-linecap="round" /></g><g transform="matrix(1 0 0 1 7.5 5)"  ><path style="stroke: none; stroke-width: 1; stroke-dasharray: none; stroke-linecap: butt; stroke-dashoffset: 0; stroke-linejoin: miter; stroke-miterlimit: 4; fill: rgb(255,255,255); fill-rule: nonzero; opacity: 1;"  transform=" translate(-7.5, -5)" d="M 5.29295 1.29298 C 5.65907 0.926863 6.23807 0.904269 6.63084 1.22462 L 6.70702 1.29298 L 9.70702 4.29298 L 9.77538 4.36915 C 10.0744 4.73574 10.0744 5.26428 9.77538 5.63087 L 9.70702 5.70704 L 6.70702 8.70704 C 6.31649 9.09757 5.68348 9.09757 5.29295 8.70704 C 4.90243 8.31652 4.90243 7.6835 5.29295 7.29298 L 7.58592 5.00001 L 5.29295 2.70704 L 5.22459 2.63087 C 4.90424 2.2381 4.92684 1.65909 5.29295 1.29298 Z" stroke-linecap="round" /></g></g></g></svg>