<svg xmlns="http://www.w3.org/2000/svg" width="32" height="32"  viewBox="0 0 32 32"><g transform="matrix(1 0 0 1 0 0)"  ><g style=""   ><g transform="matrix(1.33 0 0 1.33 16 16)"  ><path style="stroke: none; stroke-width: 1; stroke-dasharray: none; stroke-linecap: butt; stroke-dashoffset: 0; stroke-linejoin: miter; stroke-miterlimit: 4; fill: rgb(255,255,255); fill-rule: nonzero; opacity: 1;"  transform=" translate(-12, -12)" d="M 14 12 C 14 10.8954 13.1046 10 12 10 C 10.8954 10 10 10.8954 10 12 C 10 13.1046 10.8954 14 12 14 C 13.1046 14 14 13.1046 14 12 Z M 16 12 C 16 14.2091 14.2091 16 12 16 C 9.79086 16 8 14.2091 8 12 C 8 9.79086 9.79086 8 12 8 C 14.2091 8 16 9.79086 16 12 Z" stroke-linecap="round" /></g><g transform="matrix(1.33 0 0 1.33 6.67 6.67)"  ><path style="stroke: none; stroke-width: 1; stroke-dasharray: none; stroke-linecap: butt; stroke-dashoffset: 0; stroke-linejoin: miter; stroke-miterlimit: 4; fill: rgb(255,255,255); fill-rule: nonzero; opacity: 1;"  transform=" translate(-5, -5)" d="M 2 7 L 2 5 C 2 4.20435 2.3163 3.44152 2.87891 2.87891 C 3.44152 2.3163 4.20435 2 5 2 L 7 2 C 7.55228 2 8 2.44772 8 3 C 8 3.55228 7.55228 4 7 4 L 5 4 C 4.73478 4 4.48051 4.10543 4.29297 4.29297 C 4.10543 4.48051 4 4.73478 4 5 L 4 7 C 4 7.55228 3.55228 8 3 8 C 2.44772 8 2 7.55228 2 7 Z" stroke-linecap="round" /></g><g transform="matrix(1.33 0 0 1.33 25.33 6.67)"  ><path style="stroke: none; stroke-width: 1; stroke-dasharray: none; stroke-linecap: butt; stroke-dashoffset: 0; stroke-linejoin: miter; stroke-miterlimit: 4; fill: rgb(255,255,255); fill-rule: nonzero; opacity: 1;"  transform=" translate(-19, -5)" d="M 20 7 L 20 5 C 20 4.73478 19.8946 4.48051 19.707 4.29297 C 19.5429 4.12883 19.3276 4.02757 19.0986 4.00488 L 19 4 L 17 4 C 16.4477 4 16 3.55228 16 3 C 16 2.44772 16.4477 2 17 2 L 19 2 L 19.2969 2.01465 C 19.9835 2.08291 20.6289 2.38671 21.1211 2.87891 C 21.6837 3.44152 22 4.20435 22 5 L 22 7 C 22 7.55228 21.5523 8 21 8 C 20.4477 8 20 7.55228 20 7 Z" stroke-linecap="round" /></g><g transform="matrix(1.33 0 0 1.33 25.33 25.33)"  ><path style="stroke: none; stroke-width: 1; stroke-dasharray: none; stroke-linecap: butt; stroke-dashoffset: 0; stroke-linejoin: miter; stroke-miterlimit: 4; fill: rgb(255,255,255); fill-rule: nonzero; opacity: 1;"  transform=" translate(-19, -19)" d="M 20 19 L 20 17 C 20 16.4477 20.4477 16 21 16 C 21.5523 16 22 16.4477 22 17 L 22 19 C 22 19.7957 21.6837 20.5585 21.1211 21.1211 C 20.5585 21.6837 19.7957 22 19 22 L 17 22 C 16.4477 22 16 21.5523 16 21 C 16 20.4477 16.4477 20 17 20 L 19 20 C 19.2652 20 19.5195 19.8946 19.707 19.707 C 19.8946 19.5195 20 19.2652 20 19 Z" stroke-linecap="round" /></g><g transform="matrix(1.33 0 0 1.33 6.67 25.33)"  ><path style="stroke: none; stroke-width: 1; stroke-dasharray: none; stroke-linecap: butt; stroke-dashoffset: 0; stroke-linejoin: miter; stroke-miterlimit: 4; fill: rgb(255,255,255); fill-rule: nonzero; opacity: 1;"  transform=" translate(-5, -19)" d="M 2 19 L 2 17 C 2 16.4477 2.44772 16 3 16 C 3.55228 16 4 16.4477 4 17 L 4 19 L 4.00488 19.0986 C 4.02757 19.3276 4.12883 19.5429 4.29297 19.707 C 4.48051 19.8946 4.73478 20 5 20 L 7 20 C 7.55228 20 8 20.4477 8 21 C 8 21.5523 7.55228 22 7 22 L 5 22 C 4.20435 22 3.44152 21.6837 2.87891 21.1211 C 2.38671 20.6289 2.08291 19.9835 2.01465 19.2969 L 2 19 Z" stroke-linecap="round" /></g></g></g></svg>