<svg xmlns="http://www.w3.org/2000/svg" width="24" height="24"  viewBox="0 0 24 24"><g transform="matrix(1 0 0 1 0 0)"  ><g style=""   ><g transform="matrix(1 0 0 1 12 12)"  ><path style="stroke: none; stroke-width: 1; stroke-dasharray: none; stroke-linecap: butt; stroke-dashoffset: 0; stroke-linejoin: miter; stroke-miterlimit: 4; fill: rgb(143,150,163); fill-rule: nonzero; opacity: 1;"  transform=" translate(-12, -12)" d="M 10 12 C 10 10.8954 10.8954 10 12 10 C 13.1046 10 14 10.8954 14 12 C 14 13.1046 13.1046 14 12 14 C 10.8954 14 10 13.1046 10 12 Z" stroke-linecap="round" /></g><g transform="matrix(1 0 0 1 19 12)"  ><path style="stroke: none; stroke-width: 1; stroke-dasharray: none; stroke-linecap: butt; stroke-dashoffset: 0; stroke-linejoin: miter; stroke-miterlimit: 4; fill: rgb(143,150,163); fill-rule: nonzero; opacity: 1;"  transform=" translate(-19, -12)" d="M 17 12 C 17 10.8954 17.8954 10 19 10 C 20.1046 10 21 10.8954 21 12 C 21 13.1046 20.1046 14 19 14 C 17.8954 14 17 13.1046 17 12 Z" stroke-linecap="round" /></g><g transform="matrix(1 0 0 1 5 12)"  ><path style="stroke: none; stroke-width: 1; stroke-dasharray: none; stroke-linecap: butt; stroke-dashoffset: 0; stroke-linejoin: miter; stroke-miterlimit: 4; fill: rgb(143,150,163); fill-rule: nonzero; opacity: 1;"  transform=" translate(-5, -12)" d="M 3 12 C 3 10.8954 3.89543 10 5 10 C 6.10457 10 7 10.8954 7 12 C 7 13.1046 6.10457 14 5 14 C 3.89543 14 3 13.1046 3 12 Z" stroke-linecap="round" /></g></g></g></svg>