<svg xmlns="http://www.w3.org/2000/svg" width="15" height="15"  viewBox="0 0 15 15"><g transform="matrix(1 0 0 1 0 0)"  ><g style=""   ><g transform="matrix(0.63 0 0 0.63 7.5 7.5)"  ><path style="stroke: none; stroke-width: 1; stroke-dasharray: none; stroke-linecap: butt; stroke-dashoffset: 0; stroke-linejoin: miter; stroke-miterlimit: 4; fill: rgb(37,99,235); fill-rule: nonzero; opacity: 1;"  transform=" translate(-12, -12)" d="M 21 10.9996 C 21.5523 10.9996 22 11.4483 22 12.0005 L 21.9922 12.3951 C 21.9141 14.3674 21.2536 16.2758 20.0898 17.8775 C 18.8485 19.5859 17.0983 20.8578 15.0898 21.5103 C 13.0814 22.1628 10.9176 22.1629 8.90918 21.5103 C 6.90105 20.8577 5.15132 19.5857 3.91016 17.8775 C 2.66893 16.169 2 14.1113 2 11.9996 C 2.00002 9.8878 2.66889 7.83009 3.91016 6.12163 C 5.15141 4.41329 6.90184 3.14138 8.91016 2.48882 C 10.793 1.87712 12.8121 1.83924 14.7119 2.37456 L 15.0898 2.48882 L 15.1855 2.52593 C 15.6491 2.73041 15.8921 3.25633 15.7324 3.74859 C 15.5725 4.24089 15.0666 4.52441 14.5713 4.41753 L 14.4717 4.39116 L 14.1689 4.29937 C 12.6491 3.87125 11.0335 3.90176 9.52734 4.39116 C 7.92085 4.91326 6.52124 5.93084 5.52832 7.29741 C 4.53531 8.66418 4.00001 10.3102 4 11.9996 C 4 13.6889 4.53447 15.335 5.52734 16.7017 C 6.52027 18.0684 7.92076 19.0858 9.52734 19.608 C 11.134 20.13 12.865 20.1299 14.4717 19.608 C 16.0784 19.086 17.4786 18.0684 18.4717 16.7017 C 19.4027 15.4204 19.9317 13.8939 19.9941 12.316 L 20 11.9996 C 20.0002 11.4475 20.4479 10.9996 21 10.9996 Z" stroke-linecap="round" /></g></g></g></svg>